<svg xmlns="http://www.w3.org/2000/svg" width="1200" height="630" viewBox="0 0 1200 630">
  <rect width="1200" height="630" fill="#000000"/>

  <g transform="translate(80,62) scale(0.92)" fill="#ffffff">
    <path d="M75,11.5C75,4.8,70.9,1,63.9,1H40.8v29h8.4v-8H60l5.2,8.1H75l-6.2-9C72.7,19.6,75,16,75,11.5z M61,15.1H49.2V7.9H61c2.6,0,5.3,0,5.3,3.6S63.5,15.1,61,15.1z"/>
    <path d="M91.9,1l-15,29H86l2.8-5.5h17.9l2.8,5.5h9L103.5,1H91.9z M92,18.3l5.7-11.4l5.7,11.4H92z"/>
    <polygon points="121,30.1 129.4,30.1 129.4,21.5 148.7,21.5 148.7,14.4 129.4,14.4 129.4,8.2 151.1,8.2 151.1,1 121,1"/>
    <rect x="154.7" y="1" width="8.4" height="29"/>
    <polygon points="194.5,1 184.3,12 175.9,12 175.9,1 167.5,1 167.5,30.1 175.9,30.1 175.9,19.1 184.3,19.1 194.5,30.1 204.8,30.1 191.7,15.6 204.8,1"/>
    <path d="M242.2,11.5C242.2,4.8,238.1,1,231,1h-23.1v29h8.4v-8h10.8l5.2,8.1h9.7l-6.2-9C239.9,19.6,242.2,16,242.2,11.5z M228.1,15.1h-11.8V7.9h11.8c2.6,0,5.3,0,5.3,3.6S230.7,15.1,228.1,15.1z"/>
    <path d="M17.6,19.6h10.5c-0.6,1.8-3.4,4.1-9.3,4.1c-6.7,0-10.2-2.8-10.2-8.2S12,7.3,18.7,7.3c5.7,0,8,1.8,9,3.4h9C35.6,3.8,29.3,0,18.7,0C6.7,0,0,5.4,0,15.2c0,9.5,6.6,15.2,17.5,15.2c5.2,0,9.5-1.4,12.5-4.1l0.3,3.7h6.6V13.6H17.6V19.6z"/>
  </g>

  <rect x="280" y="250" width="640" height="158" rx="6" fill="#0f0f0f" stroke="rgba(255,255,255,0.12)" stroke-width="1"/>

  <g transform="translate(316,283)" fill="#c2c2c2">
    <path d="M15.75,0 C7.06,0 0,4.03 0,9 C0,13.97 7.06,18 15.75,18 C24.44,18 31.5,13.97 31.5,9 C31.5,4.03 24.43,0 15.75,0 Z M30.39,8.49 L24.14,8.49 C24.14,8.36 24.11,8.23 24.09,8.11 L26.27,8.11 C26.14,7.11 25.24,6.29 23.54,5.72 C22.88,3.94 21.73,2.43 20.23,1.41 C25.84,2.39 29.97,5.17 30.37,8.49 L30.39,8.49 Z M21.89,10.07 C21.79,10.68 20.11,11.57 15.93,11.57 C10.32,11.57 9.53,10.04 9.53,9.05 C9.53,8.06 10.3,6.58 15.93,6.58 C20.5,6.58 21.65,7.5 21.89,8.11 L23.06,8.11 C23.08,8.31 23.09,8.51 23.1,8.72 L15.61,8.72 L15.61,10.08 L21.89,10.08 L21.89,10.07 Z M22.3,5.38 C20.68,5.02 18.57,4.83 15.92,4.83 C13.13,4.83 10.85,5.08 9.11,5.55 C10.3,2.89 12.82,1.04 15.73,1.04 C18.64,1.04 21.06,2.81 22.29,5.4 L22.3,5.38 Z M11.24,1.41 C9.68,2.47 8.48,4.07 7.85,5.96 C6.35,6.57 5.47,7.42 5.26,8.49 L1.1,8.49 C1.49,5.17 5.62,2.4 11.24,1.41 Z M1.1,9.51 L5.25,9.51 C5.46,10.6 6.37,11.47 7.86,12.09 C8.5,13.96 9.69,15.53 11.24,16.59 C5.63,15.61 1.5,12.83 1.1,9.51 Z M9.15,12.51 C10.75,12.94 12.8,13.17 15.21,13.17 C18.58,13.17 21,12.67 22.59,11.92 C21.51,14.87 18.85,16.97 15.75,16.97 C12.86,16.97 10.35,15.15 9.15,12.51 L9.15,12.51 Z M20.25,16.59 C21.52,15.73 22.55,14.5 23.23,13.06 L26.28,13.06 L26.28,9.51 L30.38,9.51 C29.99,12.83 25.86,15.6 20.24,16.59 L20.25,16.59 Z"/>
  </g>

  <text x="368" y="301" font-family="Helvetica Neue, Helvetica, Arial, sans-serif" font-size="23" fill="#ffffff">rains</text>
  <rect x="421" y="281" width="2" height="28" fill="#c2c2c2"/>

  <line x1="281" y1="334" x2="919" y2="334" stroke="rgba(255,255,255,0.09)" stroke-width="1"/>

  <rect x="312" y="352" width="322" height="38" rx="6" fill="rgba(255,255,255,0.07)"/>
  <rect x="316" y="356" width="164" height="30" rx="4" fill="#333333"/>
  <text x="398" y="376" text-anchor="middle" font-family="Helvetica Neue, Helvetica, Arial, sans-serif" font-size="14.5" fill="#ffffff">Dashboard-søgning</text>
  <text x="555" y="376" text-anchor="middle" font-family="Helvetica Neue, Helvetica, Arial, sans-serif" font-size="14.5" fill="#c2c2c2">Direkte til admin</text>

  <text x="888" y="376" text-anchor="end" font-family="SF Mono, Menlo, monospace" font-size="13" fill="#7a7a7a">dev.shopify.com · rains</text>
</svg>
